<svg xmlns="http://www.w3.org/2000/svg" version="1.1" xmlns:xlink="http://www.w3.org/1999/xlink" xmlns:svgjs="http://svgjs.dev/svgjs" width="700" height="560" preserveAspectRatio="none" viewBox="0 0 700 560"><g mask="url(&quot;#SvgjsMask1018&quot;)" fill="none"><rect width="700" height="560" x="0" y="0" fill="rgba(255, 49, 48, 1)"></rect><path d="M37.46 140C37.46 121.66 6.33 126.72 0 103.06C-12.4 56.72 -29.68 21.85 0 0C40.32 -29.68 70 0 140 0C210 0 210 0 280 0C350 0 350 0 420 0C490 0 490 0 560 0C611.66 0 613.21 -6.56 663.33 0C683.21 2.6 695.38 0.69 700 18.33C713.71 70.69 700 79.16 700 140C700 210 700 210 700 280C700 350 700 350 700 420C700 490 730 520 700 560C677.5 590 633.77 581.32 595 560C563.77 542.82 587.02 483 560 483C519.85 483 513.54 530.91 460.65 560C443.54 569.41 440.33 560 420 560C350 560 350 560 280 560C210 560 210 560 140 560C70 560 35 595 0 560C-35 525 0 490 0 420C0 350 0 350 0 280C0 227.98 -12.5 222.65 0 175.95C6.23 152.65 37.46 158.1 37.46 140" stroke="rgba(255, 255, 255, 1)" stroke-width="2"></path><path d="M420 70C370.93 80.41 335.26 106.64 335.26 140C335.26 171.45 372.31 189.52 420 199.63C484.68 213.35 500.31 209.21 560 187.66C582.9 179.39 585.17 163.83 585.17 140C585.17 116.17 582.75 101.98 560 92.34C500.16 66.98 483.3 56.58 420 70" stroke="rgba(255, 255, 255, 1)" stroke-width="2"></path><path d="M140 255.56C127.94 255.56 120.89 264.15 116.67 280C99.01 346.37 87.64 359.23 96.25 420C99.31 441.58 117.69 433.17 140 444.71C209.56 480.67 214.63 521.32 280 515C342.45 508.96 395.65 457.21 395.65 420C395.65 389.56 331.29 411.04 280 379.7C216.74 341.04 223.05 330.1 166.55 280C153.05 268.03 152.88 255.56 140 255.56" stroke="rgba(255, 255, 255, 1)" stroke-width="2"></path><path d="M86.76 140C44.55 96.11 29.98 102.82 0 54.44C-13.4 32.82 -19.6 7.62 0 0C50.4 -19.6 70 0 140 0C210 0 210 0 280 0C346.96 0 413.91 -24.65 413.91 0C413.91 32.38 348.11 58.55 280 114.07C262.24 128.55 242.16 124.59 242.16 140C242.16 159.43 256.56 167.35 280 183.75C345.48 229.57 344.99 243.44 420 264.44C484.99 282.63 508.53 293.45 560 262.13C610.77 231.23 585.53 196.26 624.49 140C655.53 95.19 678.14 60 700 60C715.9 60 700 100 700 140C700 210 700 210 700 280C700 338.8 730.8 383.38 700 397.6C660.8 415.69 631.37 366.66 560 344.62C491.37 323.42 490.76 315.65 420 311.11C350.76 306.67 344.29 337.03 280 326.67C247.74 321.47 253.11 303.71 226.9 280C183.11 240.38 181.73 241.69 140 200C111.66 171.69 114.55 168.89 86.76 140" stroke="rgba(255, 255, 255, 1)" stroke-width="2"></path><path d="M560 17.87C510.07 17.87 455 4.5 455 0C455 -4.44 507.5 0 560 0C570 0 580 -3.82 580 0C580 5.12 572.57 17.87 560 17.87" stroke="rgba(255, 255, 255, 1)" stroke-width="2"></path><path d="M0 223.24C19.1 223.24 59.33 243.68 63.64 280C71 342.06 3.44 366.38 23.33 420C41.62 469.32 83.57 449.96 140 485.88C193.54 519.96 243.28 539.55 243.28 560C243.28 576.61 191.64 560 140 560C70 560 35 595 0 560C-35 525 0 490 0 420C0 350 0 350 0 280C0 251.62 -12.72 223.24 0 223.24" stroke="rgba(255, 255, 255, 1)" stroke-width="2"></path><path d="M634.77 560C634.77 520.6 682.59 442.86 700 442.86C715.21 442.86 720.95 522.38 700 560C688.33 580.95 634.77 579.17 634.77 560" stroke="rgba(255, 255, 255, 1)" stroke-width="2"></path><path d="M136.06 140C68.17 72.78 66.02 73.76 0 5.83C-2.01 3.76 -2.8 0.12 0 0C67.2 -2.8 70 0 140 0C210 0 210 0 280 0C308.91 0 337.83 -10.65 337.83 0C337.83 13.98 310.56 26.78 280 49.26C215.43 96.78 213.94 94.88 147.57 140C143.94 142.47 143.43 144.44 140 144.44C137.68 144.44 138.17 142.09 136.06 140" stroke="rgba(255, 255, 255, 1)" stroke-width="2"></path><path d="M663.82 140C672.71 116.01 689.53 101.67 700 101.67C707.62 101.67 700 120.84 700 140C700 210 700 210 700 280C700 303.8 712.19 327.6 700 327.6C679.14 327.6 640.45 314.02 633.89 280C622.36 220.22 639.66 205.17 663.82 140" stroke="rgba(255, 255, 255, 1)" stroke-width="2"></path><path d="M0 270.54C3.19 270.54 10.61 273.86 10.61 280C10.61 294.5 2.72 311.82 0 311.82C-2.58 311.82 0 295.91 0 280C0 275.27 -2.12 270.54 0 270.54" stroke="rgba(255, 255, 255, 1)" stroke-width="2"></path><path d="M0 502.07C49.74 490.37 73.48 506.33 140 527.06C166.43 535.3 185.9 550.91 185.9 560C185.9 567.38 162.95 560 140 560C70 560 49.51 580.49 0 560C-20.49 551.52 -20.26 506.84 0 502.07" stroke="rgba(255, 255, 255, 1)" stroke-width="2"></path><path d="M674.55 560C674.55 544.62 693.21 514.29 700 514.29C705.93 514.29 708.17 545.32 700 560C695.45 568.17 674.55 567.48 674.55 560" stroke="rgba(255, 255, 255, 1)" stroke-width="2"></path></g><defs><mask id="SvgjsMask1018"><rect width="700" height="560" fill="#ffffff"></rect></mask></defs></svg>